<svg version="1.1" xmlns="http://www.w3.org/2000/svg" width="126" height="133">
    <desc>Created by Grid Painter http://grid-painter.appspot.com
    </desc>
<path d="M72.9690713431 0.0L62.5767664977 6.0L62.5767664977 18.0L72.9690713431 24.0L83.3613761886 18.0L83.3613761886 6.0Z" fill="#dbdbdb" stroke-width="0" />
<path d="M93.753681034 0.0L83.3613761886 6.0L83.3613761886 18.0L93.753681034 24.0L104.145985879 18.0L104.145985879 6.0Z" fill="#dbdbdb" stroke-width="0" />
<path d="M114.538290725 0.0L104.145985879 6.0L104.145985879 18.0L114.538290725 24.0L124.93059557 18.0L124.93059557 6.0Z" fill="#dbdbdb" stroke-width="0" />
<path d="M62.5767664977 18.0L52.1844616523 24.0L52.1844616523 36.0L62.5767664977 42.0L72.9690713431 36.0L72.9690713431 24.0Z" fill="#dbdbdb" stroke-width="0" />
<path d="M41.7921568069 54.0L31.3998519615 60.0L31.3998519615 72.0L41.7921568069 78.0L52.1844616523 72.0L52.1844616523 60.0Z" fill="#dbdbdb" stroke-width="0" />
<path d="M62.5767664977 54.0L52.1844616523 60.0L52.1844616523 72.0L62.5767664977 78.0L72.9690713431 72.0L72.9690713431 60.0Z" fill="#dbdbdb" stroke-width="0" />
<path d="M83.3613761886 54.0L72.9690713431 60.0L72.9690713431 72.0L83.3613761886 78.0L93.753681034 72.0L93.753681034 60.0Z" fill="#dbdbdb" stroke-width="0" />
<path d="M62.5767664977 90.0L52.1844616523 96.0L52.1844616523 108.0L62.5767664977 114.0L72.9690713431 108.0L72.9690713431 96.0Z" fill="#dbdbdb" stroke-width="0" />
<path d="M10.6152422707 108.0L0.22293742525 114.0L0.22293742525 126.0L10.6152422707 132.0L21.0075471161 126.0L21.0075471161 114.0Z" fill="#dbdbdb" stroke-width="0" />
<path d="M31.3998519615 108.0L21.0075471161 114.0L21.0075471161 126.0L31.3998519615 132.0L41.7921568069 126.0L41.7921568069 114.0Z" fill="#dbdbdb" stroke-width="0" />
<path d="M52.1844616523 108.0L41.7921568069 114.0L41.7921568069 126.0L52.1844616523 132.0L62.5767664977 126.0L62.5767664977 114.0Z" fill="#dbdbdb" stroke-width="0" />
</svg>